<svg xmlns="http://www.w3.org/2000/svg" viewBox="0 0 64 64">
  <defs>
    <linearGradient id="g" x1="0" y1="0" x2="1" y2="1">
      <stop offset="0" stop-color="#22c55e"/>
      <stop offset="1" stop-color="#16a34a"/>
    </linearGradient>
  </defs>
  <rect width="64" height="64" rx="14" fill="url(#g)"/>
  <path fill="#ffffff" d="M44.8 19.2c-8.7.5-14.9 4.7-18.4 12.5-1.8 4-2.4 8.3-2.2 13.1.1 2.4-1.8 4.5-4.2 4.6-2.5.1-4.6-1.8-4.7-4.2-.3-6.1.6-11.8 3-17.1C22.7 18.8 31 13.3 44.3 12.3c2.5-.2 4.7 1.7 4.9 4.2.2 2.5-1.7 4.7-4.4 4.7z"/>
  <path fill="#ffffff" d="M48.7 25.2c-7.1.4-11.9 3.7-14.4 9.9-1.3 3.1-1.8 6.4-1.6 9.9.1 2.4-1.8 4.5-4.2 4.6-2.5.1-4.6-1.8-4.7-4.2-.2-4.7.5-9.1 2.2-13.1 3.8-9.1 11.2-14 22.2-14.7 2.5-.2 4.7 1.7 4.9 4.2.2 2.5-1.7 4.7-4.4 4.7z" opacity=".65"/>
</svg>

